<svg xmlns="http://www.w3.org/2000/svg" x="0px" y="0px" width="100" height="100" viewBox="0,0,300,150"
style="fill:#C850F2;">
<g fill="#c850f2" fill-rule="nonzero" stroke="none" stroke-width="1" stroke-linecap="butt" stroke-linejoin="miter" stroke-miterlimit="10" stroke-dasharray="" stroke-dashoffset="0" font-family="none" font-weight="none" font-size="none" text-anchor="none" style="mix-blend-mode: normal"><g transform="scale(8,8)"><path d="M3,2c-0.55225,0 -1,0.44727 -1,1v26c0,0.55273 0.44775,1 1,1h26c0.55273,0 1,-0.44727 1,-1v-26c0,-0.55273 -0.44727,-1 -1,-1zM4,4h8.38086l-2,4h-6.38086zM14.61914,4h1.76367l-2,4h-1.76367zM18.61914,4h9.38086v4h-11.38086zM6,5c-0.55228,0 -1,0.44772 -1,1c0,0.55228 0.44772,1 1,1c0.55228,0 1,-0.44772 1,-1c0,-0.55228 -0.44772,-1 -1,-1zM9,5c-0.55228,0 -1,0.44772 -1,1c0,0.55228 0.44772,1 1,1c0.55228,0 1,-0.44772 1,-1c0,-0.55228 -0.44772,-1 -1,-1zM4,10h24v18h-24zM8,11c-0.55225,0 -1,0.44727 -1,1v12c0,0.55273 0.44775,1 1,1h3.17188c1.55664,0 3.02002,0.60645 4.12109,1.70703c0.19531,0.19531 0.45117,0.29297 0.70703,0.29297c0.25586,0 0.51172,-0.09766 0.70703,-0.29297c1.08496,-1.08496 2.58691,-1.70703 4.12109,-1.70703h3.17188c0.55273,0 1,-0.44727 1,-1v-12c0,-0.55273 -0.44727,-1 -1,-1h-3.17187c-1.74414,0 -3.45801,0.59863 -4.82617,1.66602c-1.37305,-1.08008 -3.05664,-1.66602 -4.83008,-1.66602zM9,13h2.17188c1.55664,0 3.02002,0.60645 4.12109,1.70703c0.39063,0.39063 1.02344,0.39063 1.41406,0c1.08496,-1.08496 2.58691,-1.70703 4.12109,-1.70703h2.17188v10h-2.17187c-1.74414,0 -3.45801,0.59863 -4.82617,1.66602c-1.37305,-1.08008 -3.05664,-1.66602 -4.83008,-1.66602h-2.17187zM14,16c-0.25586,0 -0.51172,0.09766 -0.70703,0.29297l-2,2c-0.39062,0.39063 -0.39062,1.02344 0,1.41406l2,2c0.19531,0.19531 0.45117,0.29297 0.70703,0.29297c0.25586,0 0.51172,-0.09766 0.70703,-0.29297c0.39063,-0.39062 0.39063,-1.02344 0,-1.41406l-1.29297,-1.29297l1.29297,-1.29297c0.39063,-0.39062 0.39063,-1.02344 0,-1.41406c-0.19531,-0.19531 -0.45117,-0.29297 -0.70703,-0.29297zM18,16c-0.25586,0 -0.51172,0.09766 -0.70703,0.29297c-0.39062,0.39063 -0.39062,1.02344 0,1.41406l1.29297,1.29297l-1.29297,1.29297c-0.39062,0.39063 -0.39062,1.02344 0,1.41406c0.19531,0.19531 0.45117,0.29297 0.70703,0.29297c0.25586,0 0.51172,-0.09766 0.70703,-0.29297l2,-2c0.39063,-0.39062 0.39063,-1.02344 0,-1.41406l-2,-2c-0.19531,-0.19531 -0.45117,-0.29297 -0.70703,-0.29297z"></path></g></g>
</svg>